<svg xmlns="http://www.w3.org/2000/svg" viewBox="0 2 25 31" fill="none">
  <path d="M0.979492 20.7623V4.52147C0.979492 3.82771 1.5419 3.2653 2.23565 3.2653H16.9556C17.2832 3.2653 17.5979 3.39332 17.8325 3.62205L23.3682 9.01934C23.6107 9.25576 23.7474 9.58008 23.7474 9.91875V20.8516C23.5953 26.6316 15.8794 31.0856 12.7322 31.9296C12.5425 31.9805 12.3401 31.9741 12.1508 31.9216C4.28629 29.7409 1.44897 23.8644 0.992375 20.9377C0.983212 20.879 0.979492 20.8217 0.979492 20.7623Z" fill="#179D97" stroke="#179D97" stroke-width="1.96"/>
  <path d="M6.72754 17.6674H18.1561" stroke="white" stroke-width="2.51" stroke-linecap="round"/>
  <path d="M6.72754 23.545H18.1561" stroke="white" stroke-width="2.51" stroke-linecap="round"/>
  <path d="M0.979492 20.7623V4.52147C0.979492 3.82771 1.5419 3.2653 2.23565 3.2653H17.4666L23.7474 9.38909V20.8516C23.5953 26.6316 15.8794 31.0856 12.7322 31.9296C12.5425 31.9805 12.3401 31.9741 12.1508 31.9216C4.28629 29.7409 1.44897 23.8644 0.992375 20.9377C0.983212 20.879 0.979492 20.8217 0.979492 20.7623Z" stroke="#179D97" stroke-width="1.96"/>
  <path d="M16.1602 3.59184L23.4206 10.6952H17.4663C16.7449 10.6952 16.1602 10.1104 16.1602 9.38909V3.59184Z" fill="white"/>
</svg>
