<svg viewBox="0 0 640 500" fill="none" xmlns="http://www.w3.org/2000/svg" role="img" aria-label="Gifts and entertainment illustration">
  <defs>
    <linearGradient id="gf-i" x1="0" y1="0" x2="1" y2="1"><stop offset="0" stop-color="#818CF8"/><stop offset="1" stop-color="#4338CA"/></linearGradient>
    <linearGradient id="gf-t" x1="0" y1="0" x2="1" y2="1"><stop offset="0" stop-color="#22C1B6"/><stop offset="1" stop-color="#0F766E"/></linearGradient>
    <linearGradient id="gf-a" x1="0" y1="0" x2="1" y2="1"><stop offset="0" stop-color="#FBBF24"/><stop offset="1" stop-color="#F59E0B"/></linearGradient>
    <filter id="gf-s" x="-40%" y="-40%" width="180%" height="180%"><feDropShadow dx="0" dy="14" stdDeviation="22" flood-color="#4338CA" flood-opacity="0.20"/></filter>
  </defs>
  <circle cx="150" cy="128" r="92" fill="#EDE9FE"/><circle cx="522" cy="378" r="106" fill="#E0F7F6"/>
  <path d="M486 84 l10 22 22 10 -22 10 -10 22 -10-22 -22-10 22-10z" fill="url(#gf-a)" opacity="0.9"/>
  <circle cx="112" cy="356" r="10" fill="#22C1B6" opacity="0.5"/><circle cx="556" cy="150" r="7" fill="#4338CA"/>

  <!-- gift box -->
  <g filter="url(#gf-s)" transform="translate(190 176)">
    <rect x="0" y="66" width="180" height="120" rx="12" fill="#fff"/>
    <rect x="0" y="46" width="180" height="40" rx="10" fill="url(#gf-i)"/>
    <rect x="78" y="46" width="24" height="140" fill="url(#gf-a)"/>
    <!-- bow -->
    <path d="M90 46C70 20 34 24 44 46C24 40 22 12 54 14C74 16 90 30 90 46z" fill="url(#gf-a)"/>
    <path d="M90 46C110 20 146 24 136 46C156 40 158 12 126 14C106 16 90 30 90 46z" fill="url(#gf-a)"/>
    <circle cx="90" cy="46" r="12" fill="#F59E0B"/>
  </g>

  <!-- limit tag -->
  <g filter="url(#gf-s)" transform="translate(372 240)">
    <path d="M6 0 L60 0 A10 10 0 0 1 68 4 L120 56 A12 12 0 0 1 120 74 L74 120 A12 12 0 0 1 56 120 L4 68 A10 10 0 0 1 0 60 L0 6 A6 6 0 0 1 6 0z" fill="url(#gf-t)"/>
    <circle cx="26" cy="26" r="9" fill="#fff"/>
    <text x="66" y="80" font-family="Plus Jakarta Sans,sans-serif" font-size="30" font-weight="800" fill="#fff" text-anchor="middle">&#8377;</text>
  </g>
  <!-- check chip -->
  <g filter="url(#gf-s)" transform="translate(140 320)"><circle cx="28" cy="28" r="28" fill="url(#gf-t)"/><path d="M17 28l7 7 15-16" stroke="#fff" stroke-width="5" stroke-linecap="round" stroke-linejoin="round" fill="none"/></g>
  <circle cx="300" cy="120" r="6" fill="#4338CA" opacity="0.5"/>
</svg>
