<svg viewBox="0 0 640 500" fill="none" xmlns="http://www.w3.org/2000/svg" role="img" aria-label="ESG, DEI and customer illustration">
  <defs>
    <linearGradient id="ed-g" x1="0" y1="0" x2="1" y2="1"><stop offset="0" stop-color="#34D399"/><stop offset="1" stop-color="#047857"/></linearGradient>
    <linearGradient id="ed-t" x1="0" y1="0" x2="1" y2="1"><stop offset="0" stop-color="#22C1B6"/><stop offset="1" stop-color="#0F766E"/></linearGradient>
    <linearGradient id="ed-a" x1="0" y1="0" x2="1" y2="1"><stop offset="0" stop-color="#FBBF24"/><stop offset="1" stop-color="#F59E0B"/></linearGradient>
    <filter id="ed-s" x="-40%" y="-40%" width="180%" height="180%"><feDropShadow dx="0" dy="14" stdDeviation="22" flood-color="#047857" flood-opacity="0.18"/></filter>
  </defs>
  <circle cx="150" cy="128" r="92" fill="#D1FAE5"/><circle cx="522" cy="378" r="106" fill="#E0F7F6"/>
  <circle cx="470" cy="120" r="30" fill="url(#ed-a)" opacity="0.9"/>
  <g stroke="#F59E0B" stroke-width="5" stroke-linecap="round" opacity="0.7"><path d="M470 74v-14"/><path d="M508 82l10-10"/><path d="M432 82l-10-10"/><path d="M522 120h14"/></g>
  <circle cx="112" cy="356" r="10" fill="#7C3AED" opacity="0.4"/><circle cx="556" cy="180" r="7" fill="#047857"/>

  <!-- cupped hands holding a growing plant -->
  <g filter="url(#ed-s)" transform="translate(190 210)">
    <!-- hands -->
    <path d="M20 60 C6 92 34 128 130 128 C226 128 254 92 240 60 C234 92 200 104 130 104 C60 104 26 92 20 60z" fill="url(#ed-t)"/>
    <!-- soil mound -->
    <path d="M78 62 a52 20 0 0 1 104 0z" fill="#0F766E"/>
    <!-- stem -->
    <path d="M130 62 V6" stroke="#047857" stroke-width="7" stroke-linecap="round"/>
    <!-- leaves -->
    <path d="M130 34 C104 34 92 14 96 -6 C122 -4 134 14 130 34z" fill="url(#ed-g)"/>
    <path d="M130 22 C156 22 168 2 164 -18 C138 -16 126 2 130 22z" fill="#34D399"/>
  </g>
  <circle cx="300" cy="150" r="6" fill="#047857" opacity="0.5"/>
</svg>
