<svg width="223" height="33" viewBox="0 0 223 33" fill="none" xmlns="http://www.w3.org/2000/svg">
<path d="M0.979492 20.7623V4.52147C0.979492 3.82771 1.5419 3.2653 2.23565 3.2653H16.9556C17.2832 3.2653 17.5979 3.39332 17.8325 3.62205L23.3682 9.01934C23.6107 9.25576 23.7474 9.58008 23.7474 9.91875V20.8516C23.5953 26.6316 15.8794 31.0856 12.7322 31.9296C12.5425 31.9805 12.3401 31.9741 12.1508 31.9216C4.28629 29.7409 1.44897 23.8644 0.992375 20.9377C0.983212 20.879 0.979492 20.8217 0.979492 20.7623Z" fill="#179D97" stroke="#179D97" stroke-width="1.95918"/>
<path d="M6.72754 17.6674H18.1561" stroke="white" stroke-width="2.51232" stroke-linecap="round"/>
<path d="M6.72754 23.545H18.1561" stroke="white" stroke-width="2.51232" stroke-linecap="round"/>
<path d="M0.979492 20.7623V4.52147C0.979492 3.82771 1.5419 3.2653 2.23565 3.2653H17.4666L23.7474 9.38909V20.8516C23.5953 26.6316 15.8794 31.0856 12.7322 31.9296C12.5425 31.9805 12.3401 31.9741 12.1508 31.9216C4.28629 29.7409 1.44897 23.8644 0.992375 20.9377C0.983212 20.879 0.979492 20.8217 0.979492 20.7623Z" stroke="#179D97" stroke-width="1.95918"/>
<path d="M16.1602 3.59184L23.4206 10.6952H17.4663C16.7449 10.6952 16.1602 10.1104 16.1602 9.38909V3.59184Z" fill="white"/>
<path d="M40.1 16.1257H43.2869C43.7571 16.1257 44.2099 16.0909 44.6453 16.0212C45.0806 15.9516 45.4638 15.821 45.7947 15.6294C46.1255 15.4204 46.3868 15.1331 46.5783 14.7673C46.7873 14.4016 46.8918 13.9227 46.8918 13.3306C46.8918 12.7385 46.7873 12.2596 46.5783 11.8939C46.3868 11.5282 46.1255 11.2495 45.7947 11.058C45.4638 10.849 45.0806 10.7097 44.6453 10.64C44.2099 10.5703 43.7571 10.5355 43.2869 10.5355H40.1V16.1257ZM35.9987 7.34857H44.4102C45.577 7.34857 46.5696 7.52272 47.3881 7.87102C48.2066 8.20191 48.8684 8.64599 49.3734 9.20327C49.8959 9.76054 50.2703 10.3962 50.4967 11.1102C50.7405 11.8242 50.8624 12.5644 50.8624 13.3306C50.8624 14.0795 50.7405 14.8196 50.4967 15.551C50.2703 16.265 49.8959 16.9007 49.3734 17.458C48.8684 18.0152 48.2066 18.468 47.3881 18.8163C46.5696 19.1472 45.577 19.3127 44.4102 19.3127H40.1V26H35.9987V7.34857ZM55.7993 19.2604C55.7993 19.8003 55.8516 20.3314 55.9561 20.8539C56.0606 21.3589 56.2347 21.8204 56.4785 22.2384C56.7398 22.6389 57.0794 22.9611 57.4973 23.2049C57.9153 23.4487 58.4377 23.5706 59.0647 23.5706C59.6916 23.5706 60.214 23.4487 60.632 23.2049C61.0674 22.9611 61.407 22.6389 61.6508 22.2384C61.912 21.8204 62.0949 21.3589 62.1993 20.8539C62.3038 20.3314 62.3561 19.8003 62.3561 19.2604C62.3561 18.7205 62.3038 18.1894 62.1993 17.6669C62.0949 17.1445 61.912 16.683 61.6508 16.2824C61.407 15.8819 61.0674 15.5597 60.632 15.3159C60.214 15.0547 59.6916 14.9241 59.0647 14.9241C58.4377 14.9241 57.9153 15.0547 57.4973 15.3159C57.0794 15.5597 56.7398 15.8819 56.4785 16.2824C56.2347 16.683 56.0606 17.1445 55.9561 17.6669C55.8516 18.1894 55.7993 18.7205 55.7993 19.2604ZM52.09 19.2604C52.09 18.1807 52.2554 17.2054 52.5863 16.3347C52.9172 15.4465 53.3874 14.6977 53.9969 14.0882C54.6064 13.4612 55.3379 12.9823 56.1912 12.6514C57.0445 12.3031 58.0023 12.129 59.0647 12.129C60.127 12.129 61.0848 12.3031 61.9381 12.6514C62.8089 12.9823 63.549 13.4612 64.1585 14.0882C64.7681 14.6977 65.2383 15.4465 65.5691 16.3347C65.9 17.2054 66.0655 18.1807 66.0655 19.2604C66.0655 20.3401 65.9 21.3154 65.5691 22.1861C65.2383 23.0569 64.7681 23.8057 64.1585 24.4327C63.549 25.0422 62.8089 25.5124 61.9381 25.8433C61.0848 26.1741 60.127 26.3396 59.0647 26.3396C58.0023 26.3396 57.0445 26.1741 56.1912 25.8433C55.3379 25.5124 54.6064 25.0422 53.9969 24.4327C53.3874 23.8057 52.9172 23.0569 52.5863 22.1861C52.2554 21.3154 52.09 20.3401 52.09 19.2604ZM68.0593 7.34857H71.7687V26H68.0593V7.34857ZM77.981 10.4049H74.2716V7.34857H77.981V10.4049ZM74.2716 12.4947H77.981V26H74.2716V12.4947ZM89.5745 17.249C89.3306 15.699 88.4164 14.9241 86.8316 14.9241C86.2395 14.9241 85.7432 15.0634 85.3426 15.342C84.9421 15.6033 84.6112 15.9516 84.35 16.3869C84.1062 16.8049 83.932 17.2751 83.8275 17.7976C83.723 18.3026 83.6708 18.8076 83.6708 19.3127C83.6708 19.8003 83.723 20.2966 83.8275 20.8016C83.932 21.3067 84.0974 21.7682 84.3238 22.1861C84.5677 22.5867 84.8898 22.9176 85.2904 23.1788C85.6909 23.44 86.1785 23.5706 86.7532 23.5706C87.6414 23.5706 88.3206 23.3268 88.7908 22.8392C89.2784 22.3341 89.5832 21.6637 89.7051 20.8278H93.2838C93.04 22.6215 92.3434 23.9886 91.194 24.929C90.0447 25.8694 88.5731 26.3396 86.7794 26.3396C85.7693 26.3396 84.8376 26.1741 83.9842 25.8433C83.1483 25.495 82.4343 25.0161 81.8422 24.4065C81.2501 23.797 80.7886 23.0743 80.4577 22.2384C80.1268 21.385 79.9614 20.4533 79.9614 19.4433C79.9614 18.3984 80.1094 17.4318 80.4055 16.5437C80.7189 15.6381 81.1717 14.8631 81.7638 14.2188C82.3559 13.557 83.0787 13.0433 83.932 12.6776C84.7853 12.3118 85.7606 12.129 86.8577 12.129C87.6588 12.129 88.4251 12.2335 89.1565 12.4424C89.9053 12.6514 90.5671 12.9736 91.1418 13.409C91.7339 13.8269 92.2128 14.3581 92.5785 15.0024C92.9442 15.6294 93.1532 16.3782 93.2055 17.249H89.5745ZM101.518 27.6718C101.118 28.769 100.56 29.5527 99.8463 30.0229C99.1323 30.4931 98.1396 30.7282 96.8683 30.7282C96.4852 30.7282 96.1021 30.7107 95.7189 30.6759C95.3532 30.6585 94.9788 30.6324 94.5957 30.5976V27.5412C94.944 27.5761 95.301 27.6109 95.6667 27.6457C96.0324 27.6805 96.3981 27.6893 96.7638 27.6718C97.2515 27.6196 97.6085 27.428 97.8349 27.0971C98.0787 26.7663 98.2006 26.4005 98.2006 26C98.2006 25.7039 98.1483 25.4253 98.0438 25.1641L93.3157 12.4947H97.2602L100.316 21.742H100.369L103.321 12.4947H107.161L101.518 27.6718ZM120.706 13.618C120.637 13.1478 120.48 12.7211 120.236 12.338C119.992 11.9374 119.688 11.5891 119.322 11.2931C118.956 10.997 118.538 10.7706 118.068 10.6139C117.615 10.4397 117.136 10.3527 116.631 10.3527C115.708 10.3527 114.925 10.5355 114.28 10.9012C113.636 11.2495 113.114 11.7284 112.713 12.338C112.312 12.9301 112.016 13.6093 111.825 14.3755C111.651 15.1418 111.564 15.9341 111.564 16.7527C111.564 17.5363 111.651 18.3026 111.825 19.0514C112.016 19.7829 112.312 20.4446 112.713 21.0367C113.114 21.6288 113.636 22.1078 114.28 22.4735C114.925 22.8218 115.708 22.9959 116.631 22.9959C117.885 22.9959 118.861 22.6128 119.557 21.8465C120.271 21.0803 120.706 20.0702 120.863 18.8163H124.834C124.729 19.9831 124.459 21.0367 124.024 21.9771C123.589 22.9176 123.014 23.7186 122.3 24.3804C121.586 25.0422 120.75 25.5472 119.792 25.8955C118.834 26.2438 117.781 26.418 116.631 26.418C115.203 26.418 113.915 26.1741 112.765 25.6865C111.633 25.1815 110.675 24.4936 109.892 23.6229C109.108 22.7521 108.507 21.7333 108.089 20.5665C107.671 19.3823 107.462 18.111 107.462 16.7527C107.462 15.3595 107.671 14.0707 108.089 12.8865C108.507 11.6849 109.108 10.64 109.892 9.75184C110.675 8.86367 111.633 8.16707 112.765 7.66204C113.915 7.15701 115.203 6.90449 116.631 6.90449C117.659 6.90449 118.625 7.05252 119.531 7.34857C120.454 7.64463 121.272 8.08 121.986 8.65469C122.718 9.21197 123.319 9.90857 123.789 10.7445C124.259 11.5804 124.555 12.5382 124.677 13.618H120.706ZM135.811 17.7976C135.637 16.8571 135.323 16.1431 134.87 15.6555C134.435 15.1679 133.765 14.9241 132.859 14.9241C132.267 14.9241 131.771 15.0286 131.37 15.2376C130.987 15.4291 130.673 15.6729 130.43 15.969C130.203 16.265 130.038 16.5785 129.933 16.9094C129.846 17.2403 129.794 17.5363 129.776 17.7976H135.811ZM129.776 20.1486C129.829 21.3502 130.133 22.221 130.691 22.7608C131.248 23.3007 132.049 23.5706 133.094 23.5706C133.843 23.5706 134.487 23.3878 135.027 23.022C135.567 22.6389 135.898 22.2384 136.02 21.8204H139.285C138.763 23.44 137.962 24.5981 136.882 25.2947C135.802 25.9913 134.496 26.3396 132.963 26.3396C131.901 26.3396 130.943 26.1741 130.09 25.8433C129.237 25.495 128.514 25.0073 127.922 24.3804C127.33 23.7535 126.868 23.0046 126.537 22.1339C126.224 21.2631 126.067 20.3053 126.067 19.2604C126.067 18.2503 126.233 17.3099 126.563 16.4392C126.894 15.5684 127.365 14.8196 127.974 14.1927C128.584 13.5483 129.306 13.0433 130.142 12.6776C130.996 12.3118 131.936 12.129 132.963 12.129C134.113 12.129 135.114 12.3554 135.968 12.8082C136.821 13.2435 137.517 13.8356 138.057 14.5845C138.615 15.3333 139.015 16.1867 139.259 17.1445C139.503 18.1023 139.59 19.1037 139.52 20.1486H129.776ZM141.198 12.4947H144.724V14.3755H144.803C145.273 13.5918 145.882 13.0259 146.631 12.6776C147.38 12.3118 148.146 12.129 148.93 12.129C149.923 12.129 150.732 12.2683 151.359 12.5469C152.004 12.8082 152.509 13.1826 152.874 13.6702C153.24 14.1404 153.493 14.7238 153.632 15.4204C153.789 16.0996 153.867 16.8571 153.867 17.6931V26H150.158V18.3722C150.158 17.2577 149.984 16.4305 149.635 15.8906C149.287 15.3333 148.669 15.0547 147.781 15.0547C146.771 15.0547 146.039 15.3595 145.586 15.969C145.133 16.5611 144.907 17.545 144.907 18.9208V26H141.198V12.4947ZM160.862 12.4947H163.579V14.9763H160.862V21.6637C160.862 22.2906 160.966 22.7086 161.175 22.9176C161.384 23.1265 161.802 23.231 162.429 23.231C162.638 23.231 162.839 23.2223 163.03 23.2049C163.222 23.1875 163.405 23.1614 163.579 23.1265V26C163.265 26.0522 162.917 26.0871 162.534 26.1045C162.151 26.1219 161.776 26.1306 161.411 26.1306C160.836 26.1306 160.287 26.0871 159.765 26C159.26 25.9303 158.807 25.7823 158.406 25.5559C158.023 25.3295 157.719 25.0073 157.492 24.5894C157.266 24.1714 157.153 23.6229 157.153 22.9437V14.9763H154.906V12.4947H157.153V8.44571H160.862V12.4947ZM164.821 12.4947H168.348V15.0024H168.4C168.574 14.5845 168.809 14.2014 169.105 13.8531C169.401 13.4873 169.741 13.1826 170.124 12.9388C170.507 12.6776 170.916 12.4773 171.352 12.338C171.787 12.1986 172.24 12.129 172.71 12.129C172.954 12.129 173.224 12.1725 173.52 12.2596V15.7078C173.346 15.6729 173.137 15.6468 172.893 15.6294C172.649 15.5946 172.414 15.5771 172.188 15.5771C171.509 15.5771 170.934 15.6903 170.464 15.9167C169.993 16.1431 169.61 16.4566 169.314 16.8571C169.036 17.2403 168.835 17.6931 168.713 18.2155C168.592 18.738 168.531 19.3039 168.531 19.9135V26H164.821V12.4947ZM174.295 16.6482C174.347 15.7774 174.565 15.0547 174.948 14.48C175.331 13.9053 175.819 13.4438 176.411 13.0955C177.003 12.7472 177.665 12.5034 178.396 12.3641C179.145 12.2073 179.894 12.129 180.643 12.129C181.322 12.129 182.01 12.1812 182.706 12.2857C183.403 12.3728 184.039 12.5556 184.613 12.8343C185.188 13.1129 185.658 13.5048 186.024 14.0098C186.39 14.4974 186.573 15.1505 186.573 15.969V22.9959C186.573 23.6054 186.607 24.1888 186.677 24.7461C186.747 25.3034 186.869 25.7214 187.043 26H183.281C183.212 25.791 183.151 25.582 183.098 25.3731C183.063 25.1467 183.037 24.9203 183.02 24.6939C182.428 25.3034 181.731 25.7301 180.93 25.9739C180.129 26.2177 179.311 26.3396 178.475 26.3396C177.83 26.3396 177.229 26.2612 176.672 26.1045C176.115 25.9478 175.627 25.7039 175.209 25.3731C174.791 25.0422 174.461 24.6242 174.217 24.1192C173.99 23.6141 173.877 23.0133 173.877 22.3167C173.877 21.5505 174.008 20.9235 174.269 20.4359C174.548 19.9309 174.896 19.5303 175.314 19.2343C175.749 18.9382 176.237 18.7205 176.777 18.5812C177.334 18.4245 177.891 18.3026 178.449 18.2155C179.006 18.1284 179.554 18.0588 180.094 18.0065C180.634 17.9543 181.113 17.8759 181.531 17.7714C181.949 17.6669 182.28 17.5189 182.524 17.3273C182.767 17.1184 182.881 16.8223 182.863 16.4392C182.863 16.0386 182.794 15.7252 182.654 15.4988C182.532 15.255 182.358 15.0721 182.132 14.9502C181.923 14.8109 181.67 14.7238 181.374 14.689C181.096 14.6367 180.791 14.6106 180.46 14.6106C179.729 14.6106 179.154 14.7673 178.736 15.0808C178.318 15.3943 178.074 15.9167 178.004 16.6482H174.295ZM182.863 19.391C182.706 19.5303 182.506 19.6435 182.262 19.7306C182.036 19.8003 181.783 19.8612 181.505 19.9135C181.244 19.9657 180.965 20.0093 180.669 20.0441C180.373 20.0789 180.077 20.1224 179.781 20.1747C179.502 20.2269 179.223 20.2966 178.945 20.3837C178.684 20.4707 178.449 20.5927 178.24 20.7494C178.048 20.8887 177.891 21.0716 177.769 21.298C177.647 21.5244 177.586 21.8117 177.586 22.16C177.586 22.4909 177.647 22.7695 177.769 22.9959C177.891 23.2223 178.057 23.4052 178.266 23.5445C178.475 23.6664 178.718 23.7535 178.997 23.8057C179.276 23.858 179.563 23.8841 179.859 23.8841C180.591 23.8841 181.157 23.7622 181.557 23.5184C181.958 23.2746 182.254 22.9872 182.445 22.6563C182.637 22.308 182.75 21.9597 182.785 21.6114C182.837 21.2631 182.863 20.9845 182.863 20.7755V19.391ZM189.034 7.34857H192.743V26H189.034V7.34857ZM195.298 21.9771H199.4V26H195.298V21.9771ZM201.733 16.6482C201.785 15.7774 202.003 15.0547 202.386 14.48C202.769 13.9053 203.257 13.4438 203.849 13.0955C204.441 12.7472 205.103 12.5034 205.834 12.3641C206.583 12.2073 207.332 12.129 208.081 12.129C208.76 12.129 209.448 12.1812 210.144 12.2857C210.841 12.3728 211.476 12.5556 212.051 12.8343C212.626 13.1129 213.096 13.5048 213.462 14.0098C213.827 14.4974 214.01 15.1505 214.01 15.969V22.9959C214.01 23.6054 214.045 24.1888 214.115 24.7461C214.185 25.3034 214.306 25.7214 214.481 26H210.719C210.649 25.791 210.588 25.582 210.536 25.3731C210.501 25.1467 210.475 24.9203 210.458 24.6939C209.866 25.3034 209.169 25.7301 208.368 25.9739C207.567 26.2177 206.748 26.3396 205.912 26.3396C205.268 26.3396 204.667 26.2612 204.11 26.1045C203.553 25.9478 203.065 25.7039 202.647 25.3731C202.229 25.0422 201.898 24.6242 201.654 24.1192C201.428 23.6141 201.315 23.0133 201.315 22.3167C201.315 21.5505 201.445 20.9235 201.707 20.4359C201.985 19.9309 202.334 19.5303 202.752 19.2343C203.187 18.9382 203.675 18.7205 204.214 18.5812C204.772 18.4245 205.329 18.3026 205.886 18.2155C206.444 18.1284 206.992 18.0588 207.532 18.0065C208.072 17.9543 208.551 17.8759 208.969 17.7714C209.387 17.6669 209.718 17.5189 209.961 17.3273C210.205 17.1184 210.318 16.8223 210.301 16.4392C210.301 16.0386 210.231 15.7252 210.092 15.4988C209.97 15.255 209.796 15.0721 209.57 14.9502C209.361 14.8109 209.108 14.7238 208.812 14.689C208.533 14.6367 208.229 14.6106 207.898 14.6106C207.166 14.6106 206.592 14.7673 206.174 15.0808C205.756 15.3943 205.512 15.9167 205.442 16.6482H201.733ZM210.301 19.391C210.144 19.5303 209.944 19.6435 209.7 19.7306C209.474 19.8003 209.221 19.8612 208.943 19.9135C208.681 19.9657 208.403 20.0093 208.107 20.0441C207.811 20.0789 207.515 20.1224 207.219 20.1747C206.94 20.2269 206.661 20.2966 206.383 20.3837C206.121 20.4707 205.886 20.5927 205.677 20.7494C205.486 20.8887 205.329 21.0716 205.207 21.298C205.085 21.5244 205.024 21.8117 205.024 22.16C205.024 22.4909 205.085 22.7695 205.207 22.9959C205.329 23.2223 205.494 23.4052 205.703 23.5445C205.912 23.6664 206.156 23.7535 206.435 23.8057C206.713 23.858 207.001 23.8841 207.297 23.8841C208.028 23.8841 208.594 23.7622 208.995 23.5184C209.395 23.2746 209.691 22.9872 209.883 22.6563C210.075 22.308 210.188 21.9597 210.223 21.6114C210.275 21.2631 210.301 20.9845 210.301 20.7755V19.391ZM220.181 10.4049H216.472V7.34857H220.181V10.4049ZM216.472 12.4947H220.181V26H216.472V12.4947Z" fill="#05162A"/>
</svg>
