<?xml version="1.0" encoding="utf-8"?>
<!-- Generator: Adobe Illustrator 16.0.0, SVG Export Plug-In . SVG Version: 6.00 Build 0)  -->
<!DOCTYPE svg PUBLIC "-//W3C//DTD SVG 1.1//EN" "http://www.w3.org/Graphics/SVG/1.1/DTD/svg11.dtd">
<svg version="1.1" id="Layer_1" xmlns="http://www.w3.org/2000/svg" xmlns:xlink="http://www.w3.org/1999/xlink" x="0px" y="0px"
	 width="566.9px" height="82px" viewBox="0 0 566.9 82" enable-background="new 0 0 566.9 82" xml:space="preserve">
<g>
	<g>
		<g>
			<circle fill="#1A1D1F" cx="85" cy="26.649" r="9.1"/>
			<rect x="78" y="42.25" fill="#1A1D1F" width="14.601" height="38.801"/>
		</g>
		<path fill="#1A1D1F" d="M148.5,29.15c-4-5.5-10.1-8.101-18.1-8.101c-8.101,0-14.601,3-19.601,8.601c-5.5,5.5-8.1,12.6-8.1,21.2
			l0,0c0,0,0,0,0,0.5c0,8.1,2.5,15.6,8.1,21.201c5,5.5,11.601,8.6,19.601,8.6c8.1,0,14.1-2.5,18.1-8.1v6h14.101V0.45H148
			L148.5,29.15L148.5,29.15z M144,62.449c-3,3-6.5,4.5-11.1,4.5c-4.601,0-8.101-1.5-10.601-4.5c-3.5-3-5-6.5-5-11.102
			c0-4.6,1.5-8.1,4.5-11.098c3-3,6.5-4.5,10.601-4.5c4.5,0,8.1,1.5,11.1,4.5c3,2.5,4.5,6.5,4.5,11.098
			C148.5,55.85,147,59.35,144,62.449z"/>
		<path fill="#1A1D1F" d="M203.4,22.15c-8.601,0-16.101,3-21.7,8.601c-5.6,5.6-8.1,12.099-8.1,21.199c0,8.102,2.5,15.602,8.1,21.201
			c5.6,5.6,13.1,8.1,22.7,8.1c10.6,0,19.1-3.5,24.7-11.6l-0.5-0.5l0,0l-11.1-6.5c-3,3.5-7.1,5.5-12.6,5.5
			c-8.101,0-13.101-3-15.601-9.602H232.1c0.5-2,0.5-4,0.5-6c0-8.102-3-15.6-8.101-21.201C218,25.15,211.4,22.15,203.4,22.15z
			 M188.3,46.35c0.5-3.5,2.5-6.5,5-8.099c2.5-2,5.5-3,9.601-3c3,0,6,0.5,8.6,2.5c2.601,2,4,5,5,8.599H188.3z"/>
		<path fill="#1A1D1F" d="M366.601,54.85c-2,3.5-4.5,6-8.101,8.1c-3.601,2.102-7.601,3-12.101,3c-7.601,0-13.601-2.5-18.101-7.1
			c-4.5-4.5-7.1-10.6-7.1-18.099c0-7.601,2.5-13.601,7.1-18.101c4.5-4.5,10.601-7.101,18.101-7.101c4.5,0,8.601,1,11.601,2.5
			c3.5,2.5,6,5,8.101,8.601l13.101-7.601c-3-5.5-7.601-9.601-13.601-13.101c-5.5-3.5-12.101-5-19.101-5
			c-11.601,0-21.2,4-28.7,11.601c-7.6,7.6-11.6,17.1-11.6,28.7c0,11.598,4,21.2,11.6,28.7c7.6,7.602,17.1,11.602,28.7,11.602
			c7.101,0,13.601-1.5,19.601-5.5c5.5-3,10.101-7.602,13.601-13.102L366.601,54.85z"/>
		<path fill="#1A1D1F" d="M73.4,81.051v-0.5V81.051z"/>
		<path fill="#1A1D1F" d="M37.7,62.449l-19.2-62H1.4l23.7,71c0.5,2.5,2.5,5,4.5,7.102c2,1.5,4.5,2.5,8.1,2.5
			c6,0,10.6-3.5,13.1-9.602l23.1-70.5l0,0v-0.5H56.8L37.7,62.449z"/>
		<path fill="#1A1D1F" d="M267.9,21.65c-16.601,0-29.7,13.101-29.7,29.7c0,16.6,13,29.701,29.7,29.701
			c16.6,0,29.701-13.102,29.701-29.701C297.601,34.75,284.5,21.65,267.9,21.65z M267.9,66.449c-8.101,0-15.101-6.5-15.101-15.102
			c0-8.6,6.5-15.098,15.101-15.098c8.6,0,15.1,6.5,15.1,15.098C283,59.947,275.9,66.449,267.9,66.449z"/>
		<g>
			<path fill="#1A1D1F" d="M380.7,0.45h17.1l17.101,25.7l16.6-25.7h17.1L423,39.75l27.2,41.3H433.1L414.5,52.85l-18.2,28.201h-17.6
				l27.2-41.3L380.7,0.45z"/>
		</g>
		<path fill="#1A1D1F" d="M535.8,21.65c-16.6,0-29.7,13.101-29.7,29.7c0,16.6,13.102,29.701,29.7,29.701
			c16.602,0,29.7-13.102,29.7-29.701C565.5,34.75,552.4,21.65,535.8,21.65z M535.8,66.449c-8.1,0-15.1-6.5-15.1-15.102
			c0-8.6,6.5-15.098,15.1-15.098c8.602,0,15.102,6.5,15.102,15.098C550.4,59.85,543.9,66.449,535.8,66.449z"/>
		<circle fill="#1A1D1F" cx="464.8" cy="71.949" r="9.102"/>
		<g>
			<circle fill="#1A1D1F" cx="490" cy="26.649" r="9.1"/>
			<rect x="482.4" y="42.25" fill="#1A1D1F" width="14.6" height="38.801"/>
		</g>
	</g>
</g>
<g>
	<g>
		<g>
			<circle fill="#1A1D1F" cx="1028.3" cy="-479.5" r="11.8"/>
			<rect x="1019.1" y="-459.1" fill="#1A1D1F" width="19.102" height="50.7"/>
		</g>
		<path fill="#1A1D1F" d="M1111.3-476.2c-5.3-7.2-13.2-10.5-23.7-10.5s-19.1,3.9-25.698,11.2c-7.2,7.2-10.5,16.5-10.5,27.6l0,0
			c0,0,0,0,0,0.7c0,10.5,3.3,20.4,10.5,27.6c6.6,7.2,15.1,11.2,25.698,11.2c10.5,0,18.4-3.3,23.7-10.5v7.9h18.4v-102.7H1110.6
			L1111.3-476.2L1111.3-476.2z M1105.3-432.7c-3.898,3.9-8.6,5.9-14.5,5.9c-5.898,0-10.5-2-13.8-5.9c-4.6-3.9-6.6-8.6-6.6-14.5
			c0-5.9,2-10.5,5.898-14.5c3.9-4,8.602-5.9,13.801-5.9c5.899,0,10.5,2,14.5,5.9c3.899,3.3,5.899,8.6,5.899,14.5
			C1111.3-441.3,1109.3-436.7,1105.3-432.7z"/>
		<path fill="#1A1D1F" d="M1183-485.4c-11.2,0-21.1,3.9-28.3,11.2c-7.2,7.2-10.5,15.8-10.5,27.6c0,10.5,3.3,20.4,10.5,27.601
			s17.1,10.5,29.6,10.5c13.8,0,25-4.601,32.2-15.101l-0.7-0.699l0,0l-14.5-8.601c-3.899,4.601-9.2,7.2-16.5,7.2
			c-10.5,0-17.1-3.9-20.399-12.5h55.899c0.7-2.6,0.7-5.3,0.7-7.9c0-10.5-3.9-20.399-10.5-27.6C1202.1-481.4,1193.5-485.4,1183-485.4
			z M1163.2-453.8c0.7-4.601,3.3-8.601,6.6-10.5c3.3-2.601,7.2-3.9,12.5-3.9c3.9,0,7.9,0.7,11.2,3.3c3.3,2.601,5.3,6.601,6.6,11.2
			H1163.2V-453.8z"/>
		<path fill="#1A1D1F" d="M1396.2-442.6c-2.602,4.601-5.9,7.9-10.5,10.5c-4.602,2.601-9.9,3.9-15.8,3.9c-9.9,0-17.802-3.3-23.7-9.2
			c-5.9-5.899-9.2-13.8-9.2-23.7c0-9.899,3.3-17.8,9.2-23.699c5.898-5.9,13.8-9.2,23.7-9.2c5.898,0,11.198,1.3,15.1,3.3
			c4.6,3.3,7.9,6.6,10.5,11.2l17.1-9.9c-3.898-7.2-9.898-12.5-17.8-17.1c-7.2-4.601-15.8-6.601-25-6.601
			c-15.1,0-27.6,5.301-37.5,15.101c-9.9,9.899-15.1,22.399-15.1,37.5c0,15.1,5.3,27.6,15.1,37.5c9.9,9.899,22.4,15.1,37.5,15.1
			c9.2,0,17.8-2,25.7-7.2c7.199-3.899,13.199-9.899,17.8-17.1L1396.2-442.6z"/>
		<path fill="#1A1D1F" d="M1013.2-408.4v-0.7V-408.4z"/>
		<path fill="#1A1D1F" d="M966.5-432.7l-25-80.9h-22.4l30.9,92.8c0.7,3.3,3.3,6.6,5.9,9.199c2.6,2,5.898,3.301,10.5,3.301
			c7.898,0,13.8-4.601,17.1-12.5l30.3-92.101l0,0v-0.7H991.4L966.5-432.7z"/>
		<path fill="#1A1D1F" d="M1267.2-486c-21.7,0-38.8,17.1-38.8,38.8c0,21.7,17.1,38.8,38.8,38.8s38.8-17.1,38.8-38.8
			C1306-468.9,1288.9-486,1267.2-486z M1267.2-427.5c-10.5,0-19.7-8.601-19.7-19.7c0-11.2,8.6-19.7,19.7-19.7
			c11.2,0,19.7,8.601,19.7,19.7C1287-436,1277.7-427.5,1267.2-427.5z"/>
		<g>
			<path fill="#1A1D1F" d="M1414.6-513.7h22.4l22.4,33.6l21.698-33.6h22.4l-33.6,51.3l35.5,54H1483l-24.3-36.899L1435-408.4h-23
				l35.5-54L1414.6-513.7z"/>
		</g>
		<path fill="#1A1D1F" d="M1617.3-486c-21.7,0-38.8,17.1-38.8,38.8c0,21.7,17.1,38.8,38.8,38.8s38.8-17.1,38.8-38.8
			C1656.1-468.9,1639-486,1617.3-486z M1617.3-427.5c-10.5,0-19.7-8.601-19.7-19.7c0-11.2,8.602-19.7,19.7-19.7
			c11.102,0,19.7,8.601,19.7,19.7C1636.4-436,1627.8-427.5,1617.3-427.5z"/>
		<circle fill="#1A1D1F" cx="1524.5" cy="-420.2" r="11.8"/>
		<g>
			<circle fill="#1A1D1F" cx="1557.4" cy="-479.5" r="11.8"/>
			<rect x="1547.5" y="-459.1" fill="#1A1D1F" width="19.1" height="50.7"/>
		</g>
	</g>
	<text transform="matrix(1 0 0 1 931.1875 -347.4902)" fill="#1A1D1F" font-family="'Montserrat-Bold'" font-size="26.4798">Enterprise Video Platform for Customer Interaction</text>
</g>
</svg>
