<svg width="100%" viewBox="0 0 680 390" xmlns="http://www.w3.org/2000/svg">
  <defs>
    <pattern id="grid" width="32" height="32" patternUnits="userSpaceOnUse">
      <path d="M 32 0 L 0 0 0 32" fill="none" stroke="#179d97" stroke-width="0.25" opacity="0.15"/>
    </pattern>
  </defs>

  <rect width="680" height="380" fill="#0a203a"/>
  <rect width="680" height="380" fill="url(#grid)"/>

  <!-- Corner brackets -->
  <path d="M 48 36 L 48 48 L 60 48" fill="none" stroke="#179d97" stroke-width="1.5" opacity="0.6"/>
  <path d="M 632 344 L 632 332 L 620 332" fill="none" stroke="#179d97" stroke-width="1.5" opacity="0.6"/>

  <!-- Left vertical accent -->
  <rect x="48" y="48" width="3" height="284" rx="1.5" fill="#179d97" opacity="0.5"/>

  <!-- Eyebrow -->
  <text x="68" y="100" font-family="'Courier New', monospace" font-size="11" fill="#179d97" letter-spacing="3" opacity="0.7">MOBILE + ENGAGEMENT</text>

  <!-- Title -->
  <text x="68" y="152" font-family="'Courier New', monospace" font-size="42" font-weight="700" fill="#ffffff" letter-spacing="-1">MOBILE</text>
  <text x="68" y="200" font-family="'Courier New', monospace" font-size="42" font-weight="700" fill="#179d97" letter-spacing="-1">POLICY</text>

  <!-- Tagline -->
  <text x="68" y="240" font-family="'Courier New', monospace" font-size="12" fill="#7ececa" opacity="0.7" letter-spacing="1">Engagement strategies that actually work</text>

  <!-- Divider -->
  <line x1="68" y1="268" x2="360" y2="268" stroke="#179d97" stroke-width="0.5" opacity="0.3"/>

  <!-- HERO ELEMENT: engagement signals rising -->
  <g>
    <line x1="72" y1="322" x2="210" y2="322" stroke="#179d97" stroke-width="0.5" opacity="0.3"/>
    <path d="M 80 316 q 6 -2 12 0 t 12 0" fill="none" stroke="#7ececa" stroke-width="1" opacity="0.55"/>
    <circle cx="118" cy="308" r="3" fill="#179d97" opacity="0.8"/>
    <path d="M 116 307 a 4 4 0 1 1 4 0 q 0 3 -2 5 q -2 -2 -2 -5" fill="#179d97" opacity="0.35"/>
    <circle cx="150" cy="302" r="2.5" fill="#7ececa" opacity="0.7"/>
    <circle cx="178" cy="296" r="3.5" fill="#179d97" opacity="0.9"/>
    <polyline points="82,314 118,308 150,302 178,296" fill="none" stroke="#179d97" stroke-width="0.8" opacity="0.45"/>
  </g>

  <!-- Bottom keyword strip -->
  <text x="68" y="348" font-family="'Courier New', monospace" font-size="10" fill="#7ececa" opacity="0.5" letter-spacing="1">SUMMARIES · QUIZZES · CHATBOT · SEARCH</text>

  <!-- Right-side: PHONE MOCKUP -->
  <rect x="486" y="70" width="118" height="240" rx="16" fill="none" stroke="#179d97" stroke-width="1" opacity="0.4"/>
  <rect x="494" y="82" width="102" height="216" rx="8" fill="#179d97" opacity="0.04"/>
  <rect x="528" y="76" width="34" height="4" rx="2" fill="#179d97" opacity="0.3"/>

  <!-- Phone header -->
  <text x="545" y="104" font-family="'Courier New', monospace" font-size="8" fill="#179d97" text-anchor="middle" letter-spacing="1.5" opacity="0.6">POLICIES</text>
  <line x1="502" y1="112" x2="588" y2="112" stroke="#179d97" stroke-width="0.4" opacity="0.2"/>

  <!-- Search bar -->
  <rect x="502" y="120" width="86" height="14" rx="7" fill="none" stroke="#179d97" stroke-width="0.6" opacity="0.3"/>
  <circle cx="512" cy="127" r="3" fill="none" stroke="#7ececa" stroke-width="0.6" opacity="0.5"/>
  <text x="522" y="130" font-family="'Courier New', monospace" font-size="6.5" fill="#7ececa" opacity="0.5">casual leave</text>

  <!-- Policy cards -->
  <rect x="502" y="144" width="86" height="26" rx="4" fill="#179d97" opacity="0.12"/>
  <rect x="508" y="150" width="40" height="3" rx="1.5" fill="#ffffff" opacity="0.55"/>
  <rect x="508" y="158" width="62" height="2.5" rx="1.25" fill="#7ececa" opacity="0.3"/>
  <circle cx="580" cy="152" r="4" fill="none" stroke="#179d97" stroke-width="1" opacity="0.8"/>
  <path d="M 578 152 l 1.6 2 l 3 -3.5" fill="none" stroke="#179d97" stroke-width="1"/>

  <rect x="502" y="176" width="86" height="26" rx="4" fill="#179d97" opacity="0.08"/>
  <rect x="508" y="182" width="34" height="3" rx="1.5" fill="#ffffff" opacity="0.45"/>
  <rect x="508" y="190" width="56" height="2.5" rx="1.25" fill="#7ececa" opacity="0.25"/>

  <rect x="502" y="208" width="86" height="26" rx="4" fill="#179d97" opacity="0.06"/>
  <rect x="508" y="214" width="44" height="3" rx="1.5" fill="#ffffff" opacity="0.35"/>
  <rect x="508" y="222" width="50" height="2.5" rx="1.25" fill="#7ececa" opacity="0.2"/>

  <!-- Chat bubble -->
  <rect x="514" y="248" width="74" height="18" rx="9" fill="#179d97" opacity="0.5"/>
  <text x="551" y="260" font-family="'Courier New', monospace" font-size="6.5" fill="#0a203a" text-anchor="middle">Ask PolicyGPT</text>
  <circle cx="504" cy="257" r="6" fill="none" stroke="#179d97" stroke-width="0.8" opacity="0.5"/>

  <!-- Brand mark -->
  <text x="614" y="358" font-family="'Courier New', monospace" font-size="9" fill="#179d97" opacity="0.35" text-anchor="end" letter-spacing="2">POLICYCENTRAL.AI</text>
</svg>
